<svg id="Capa_1" enable-background="new 0 0 512 512" height="200" viewBox="0 0 512 512" width="200" xmlns="http://www.w3.org/2000/svg"><path d="m451.919 14.816c-19.755-19.753-51.897-19.755-71.652 0l-144.5 144.501c-4.653 4.653-6.014 11.358-4.112 17.227l-154.871 154.87c-14.548 14.55-15.975 37.322-4.29 53.491l-25.028 25.028c-2.929 2.929-2.929 7.679 0 10.608 1.465 1.465 3.385 2.197 5.305 2.197 1.919 0 3.839-.733 5.305-2.197l7.137-7.137c10.86 21.904 33.199 36.04 58.168 36.04.143 0 .286 0 .43-.001l27.108-.175h.125c5.241 0 10.07 2.129 13.611 6.002 3.568 3.905 5.253 8.956 4.743 14.221-.007.072-.013.144-.018.216-.767 11.312 3.361 22.429 11.324 30.5 7.46 7.562 17.639 11.794 28.204 11.793.712 0 1.427-.019 2.141-.058 4.137-.224 7.309-3.759 7.085-7.896s-3.776-7.304-7.896-7.085c-7.036.391-13.906-2.276-18.855-7.291-4.926-4.992-7.488-11.859-7.042-18.856.872-9.368-2.263-18.716-8.612-25.665-6.329-6.925-15.317-10.885-24.692-10.885-.071 0-.144 0-.216 0l-27.108.175c-.111.001-.219.001-.33.001-20.936 0-39.48-12.921-46.786-32.421l6.734-6.734c6.691 4.413 14.524 6.786 22.723 6.786 11.056 0 21.451-4.306 29.267-12.123l12.893-12.892c2.93-2.929 2.93-7.678.001-10.608s-7.679-2.93-10.608 0l-12.894 12.892c-4.983 4.984-11.61 7.729-18.659 7.729-7.048 0-13.675-2.745-18.659-7.729-10.289-10.289-10.289-27.03 0-37.319l153.929-153.929c2.744 1.196 6.055.679 8.301-1.568 2.929-2.93 2.929-7.679-.001-10.608l-3.246-3.246c-.758-.757-.758-1.99 0-2.747l103.129-103.13 50.434 50.434-103.131 103.132c-.756.757-1.99.757-2.747 0l-19.049-19.048c-2.928-2.93-7.678-2.929-10.608 0-2.929 2.93-2.929 7.679.001 10.608l13.864 13.864-116.663 116.662c-2.929 2.929-2.929 7.679 0 10.608 1.465 1.465 3.385 2.197 5.305 2.197s3.839-.733 5.305-2.197l117.974-117.974c1.703.552 3.472.843 5.245.843 4.34 0 8.678-1.652 11.982-4.955l137.644-137.645c2.554 3.512 3.952 7.713 3.952 12.139 0 5.534-2.155 10.737-6.068 14.65l-65.152 65.151c-7.505 7.505-10.345 18.444-7.64 28.566-1.93 3.145-3.064 6.83-3.064 10.783 0 11.414 9.286 20.7 20.7 20.7s20.701-9.286 20.701-20.7-9.287-20.7-20.701-20.7c-1.202 0-2.373.125-3.519.322.42-3.106 1.832-6.063 4.133-8.363l65.152-65.151c6.746-6.747 10.462-15.717 10.462-25.258 0-8.543-2.986-16.622-8.452-23.064 16.014-19.876 14.802-49.131-3.648-67.581zm-64.128 204.098c3.142 0 5.698 2.556 5.698 5.698s-2.556 5.698-5.698 5.698c-3.141 0-5.697-2.556-5.697-5.698s2.556-5.698 5.697-5.698zm53.519-143.056-30.761 30.761-50.434-50.434 12.411-12.411 31.291 31.292c2.929 2.929 7.678 2.93 10.609 0 2.929-2.929 2.929-7.679 0-10.608l-31.292-31.293 7.741-7.741c13.907-13.904 36.531-13.904 50.435 0 13.905 13.905 13.905 36.529 0 50.434z"/></svg>